# Blender 3.6.0
# www.blender.org
mtllib rbmk1000.mtl
o Cylinder.003
v 0.000000 -8.312338 -2.726204
v 0.000000 8.312338 -2.726204
v 0.500000 -8.312338 -2.592230
v 0.500000 8.312338 -2.592230
v 0.866025 -8.312338 -2.226204
v 0.866025 8.312338 -2.226204
v 1.000000 -8.312338 -1.726204
v 1.000000 8.312338 -1.726204
v 0.866025 -8.312338 -1.226204
v 0.866025 8.312338 -1.226204
v 0.500000 -8.312338 -0.860179
v 0.500000 8.312338 -0.860179
v 0.000000 -8.312338 -0.726204
v 0.000000 8.312338 -0.726204
v -0.500000 -8.312338 -0.860179
v -0.500000 8.312338 -0.860179
v -0.866025 -8.312338 -1.226204
v -0.866025 8.312338 -1.226204
v -1.000000 -8.312338 -1.726204
v -1.000000 8.312338 -1.726204
v -0.866025 -8.312338 -2.226204
v -0.866025 8.312338 -2.226204
v -0.500000 -8.312338 -2.592230
v -0.500000 8.312338 -2.592230
v 0.000000 -8.312338 4.919909
v 0.000000 8.312338 4.919909
v 0.500000 -8.312338 5.053884
v 0.500000 8.312338 5.053884
v 0.866025 -8.312338 5.419909
v 0.866025 8.312338 5.419909
v 1.000000 -8.312338 5.919909
v 1.000000 8.312338 5.919909
v 0.866025 -8.312338 6.419910
v 0.866025 8.312338 6.419910
v 0.500000 -8.312338 6.785935
v 0.500000 8.312338 6.785935
v 0.000000 -8.312338 6.919910
v 0.000000 8.312338 6.919910
v -0.500000 -8.312338 6.785935
v -0.500000 8.312338 6.785935
v -0.866025 -8.312338 6.419910
v -0.866025 8.312338 6.419910
v -1.000000 -8.312338 5.919909
v -1.000000 8.312338 5.919909
v -0.866025 -8.312338 5.419909
v -0.866025 8.312338 5.419909
v -0.500000 -8.312338 5.053884
v -0.500000 8.312338 5.053884
v 0.000000 -8.312338 2.450934
v 0.000000 8.312338 2.450934
v 0.500000 -8.312338 2.584908
v 0.500000 8.312338 2.584908
v 0.866025 -8.312338 2.950934
v 0.866025 8.312338 2.950934
v 1.000000 -8.312338 3.450934
v 1.000000 8.312338 3.450934
v 0.866025 -8.312338 3.950934
v 0.866025 8.312338 3.950934
v 0.500000 -8.312338 4.316959
v 0.500000 8.312338 4.316959
v 0.000000 -8.312338 4.450934
v 0.000000 8.312338 4.450934
v -0.500000 -8.312338 4.316959
v -0.500000 8.312338 4.316959
v -0.866025 -8.312338 3.950934
v -0.866025 8.312338 3.950934
v -1.000000 -8.312338 3.450934
v -1.000000 8.312338 3.450934
v -0.866025 -8.312338 2.950934
v -0.866025 8.312338 2.950934
v -0.500000 -8.312338 2.584908
v -0.500000 8.312338 2.584908
v 0.000000 -8.312338 -0.095901
v 0.000000 8.312338 -0.095901
v 0.500000 -8.312338 0.038073
v 0.500000 8.312338 0.038073
v 0.866025 -8.312338 0.404099
v 0.866025 8.312338 0.404099
v 1.000000 -8.312338 0.904099
v 1.000000 8.312338 0.904099
v 0.866025 -8.312338 1.404099
v 0.866025 8.312338 1.404099
v 0.500000 -8.312338 1.770124
v 0.500000 8.312338 1.770124
v 0.000000 -8.312338 1.904099
v 0.000000 8.312338 1.904099
v -0.500000 -8.312338 1.770124
v -0.500000 8.312338 1.770124
v -0.866025 -8.312338 1.404099
v -0.866025 8.312338 1.404099
v -1.000000 -8.312338 0.904099
v -1.000000 8.312338 0.904099
v -0.866025 -8.312338 0.404099
v -0.866025 8.312338 0.404099
v -0.500000 -8.312338 0.038073
v -0.500000 8.312338 0.038073
v 0.000000 -8.312338 -13.915201
v 0.000000 8.312338 -13.915201
v 0.500000 -8.312338 -13.781227
v 0.500000 8.312338 -13.781227
v 0.866025 -8.312338 -13.415201
v 0.866025 8.312338 -13.415201
v 1.000000 -8.312338 -12.915201
v 1.000000 8.312338 -12.915201
v 0.866025 -8.312338 -12.415201
v 0.866025 8.312338 -12.415201
v 0.500000 -8.312338 -12.049177
v 0.500000 8.312338 -12.049177
v 0.000000 -8.312338 -11.915201
v 0.000000 8.312338 -11.915201
v -0.500000 -8.312338 -12.049177
v -0.500000 8.312338 -12.049177
v -0.866025 -8.312338 -12.415201
v -0.866025 8.312338 -12.415201
v -1.000000 -8.312338 -12.915201
v -1.000000 8.312338 -12.915201
v -0.866025 -8.312338 -13.415201
v -0.866025 8.312338 -13.415201
v -0.500000 -8.312338 -13.781227
v -0.500000 8.312338 -13.781227
v 0.000000 -8.312338 -11.284897
v 0.000000 8.312338 -11.284897
v 0.500000 -8.312338 -11.150923
v 0.500000 8.312338 -11.150923
v 0.866025 -8.312338 -10.784897
v 0.866025 8.312338 -10.784897
v 1.000000 -8.312338 -10.284897
v 1.000000 8.312338 -10.284897
v 0.866025 -8.312338 -9.784897
v 0.866025 8.312338 -9.784897
v 0.500000 -8.312338 -9.418872
v 0.500000 8.312338 -9.418872
v 0.000000 -8.312338 -9.284897
v 0.000000 8.312338 -9.284897
v -0.500000 -8.312338 -9.418872
v -0.500000 8.312338 -9.418872
v -0.866025 -8.312338 -9.784897
v -0.866025 8.312338 -9.784897
v -1.000000 -8.312338 -10.284897
v -1.000000 8.312338 -10.284897
v -0.866025 -8.312338 -10.784897
v -0.866025 8.312338 -10.784897
v -0.500000 -8.312338 -11.150923
v -0.500000 8.312338 -11.150923
v 0.000000 -8.312338 -8.738063
v 0.000000 8.312338 -8.738063
v 0.500000 -8.312338 -8.604088
v 0.500000 8.312338 -8.604088
v 0.866025 -8.312338 -8.238063
v 0.866025 8.312338 -8.238063
v 1.000000 -8.312338 -7.738063
v 1.000000 8.312338 -7.738063
v 0.866025 -8.312338 -7.238063
v 0.866025 8.312338 -7.238063
v 0.500000 -8.312338 -6.872037
v 0.500000 8.312338 -6.872037
v 0.000000 -8.312338 -6.738063
v 0.000000 8.312338 -6.738063
v -0.500000 -8.312338 -6.872037
v -0.500000 8.312338 -6.872037
v -0.866025 -8.312338 -7.238063
v -0.866025 8.312338 -7.238063
v -1.000000 -8.312338 -7.738063
v -1.000000 8.312338 -7.738063
v -0.866025 -8.312338 -8.238063
v -0.866025 8.312338 -8.238063
v -0.500000 -8.312338 -8.604088
v -0.500000 8.312338 -8.604088
v 0.000000 -8.312338 -6.269087
v 0.000000 8.312338 -6.269087
v 0.500000 -8.312338 -6.135112
v 0.500000 8.312338 -6.135112
v 0.866025 -8.312338 -5.769087
v 0.866025 8.312338 -5.769087
v 1.000000 -8.312338 -5.269087
v 1.000000 8.312338 -5.269087
v 0.866025 -8.312338 -4.769087
v 0.866025 8.312338 -4.769087
v 0.500000 -8.312338 -4.403061
v 0.500000 8.312338 -4.403061
v 0.000000 -8.312338 -4.269087
v 0.000000 8.312338 -4.269087
v -0.500000 -8.312338 -4.403061
v -0.500000 8.312338 -4.403061
v -0.866025 -8.312338 -4.769087
v -0.866025 8.312338 -4.769087
v -1.000000 -8.312338 -5.269087
v -1.000000 8.312338 -5.269087
v -0.866025 -8.312338 -5.769087
v -0.866025 8.312338 -5.769087
v -0.500000 -8.312338 -6.135112
v -0.500000 8.312338 -6.135112
v 0.000000 9.056440 -2.534649
v 0.000000 9.056441 10.253077
v 0.866025 8.556440 -2.534649
v 0.866025 8.556441 10.253077
v 0.866025 7.556440 -2.534649
v 0.866025 7.556441 10.253077
v 0.000000 7.056440 -2.534649
v 0.000000 7.056441 10.253077
v -0.866025 7.556440 -2.534649
v -0.866025 7.556441 10.253077
v -0.866025 8.556440 -2.534649
v -0.866025 8.556441 10.253077
v 0.000000 9.056440 -17.251698
v 0.000000 9.056441 -4.463972
v 0.866025 8.556440 -17.251698
v 0.866025 8.556441 -4.463972
v 0.866025 7.556440 -17.251698
v 0.866025 7.556441 -4.463972
v 0.000000 7.056440 -17.251698
v 0.000000 7.056441 -4.463972
v -0.866025 7.556440 -17.251698
v -0.866025 7.556441 -4.463972
v -0.866025 8.556440 -17.251698
v -0.866025 8.556441 -4.463972
v 0.000000 -7.240127 -17.251698
v 0.000000 -7.240126 -4.463972
v 0.866025 -7.740126 -17.251698
v 0.866025 -7.740125 -4.463972
v 0.866025 -8.740127 -17.251698
v 0.866025 -8.740126 -4.463972
v 0.000000 -9.240127 -17.251698
v 0.000000 -9.240126 -4.463972
v -0.866025 -8.740127 -17.251698
v -0.866025 -8.740126 -4.463972
v -0.866025 -7.740126 -17.251698
v -0.866025 -7.740125 -4.463972
v 0.000000 -7.277962 -2.706882
v 0.000000 -7.277961 10.080843
v 0.866025 -7.777962 -2.706882
v 0.866025 -7.777961 10.080843
v 0.866025 -8.777963 -2.706882
v 0.866025 -8.777962 10.080843
v 0.000000 -9.277963 -2.706882
v 0.000000 -9.277962 10.080843
v -0.866025 -8.777963 -2.706882
v -0.866025 -8.777962 10.080843
v -0.866025 -7.777962 -2.706882
v -0.866025 -7.777961 10.080843
vn -0.0000 -0.1032 -0.9947
vn -0.0000 0.1032 -0.9947
vn 0.4973 0.1032 -0.8614
vn 0.4973 -0.1032 -0.8614
vn 0.8614 0.1032 -0.4973
vn 0.8614 -0.1032 -0.4973
vn 0.9947 0.1032 -0.0000
vn 0.9947 -0.1032 -0.0000
vn 0.8614 0.1032 0.4973
vn 0.8614 -0.1032 0.4973
vn 0.4973 0.1032 0.8614
vn 0.4973 -0.1032 0.8614
vn -0.0000 0.1032 0.9947
vn -0.0000 -0.1032 0.9947
vn -0.4973 0.1032 0.8614
vn -0.4973 -0.1032 0.8614
vn -0.8614 0.1032 0.4973
vn -0.8614 -0.1032 0.4973
vn -0.9947 0.1032 -0.0000
vn -0.9947 -0.1032 -0.0000
vn -0.8614 0.1032 -0.4973
vn -0.8614 -0.1032 -0.4973
vn -0.4973 0.1032 -0.8614
vn -0.4973 -0.1032 -0.8614
vn -0.0000 0.1246 -0.9922
vn -0.0000 0.1246 0.9922
vn 0.7132 0.0800 0.6964
vn 0.7132 0.0800 -0.6964
vn 0.7132 -0.0800 0.6964
vn 0.7132 -0.0800 -0.6964
vn -0.0000 -0.1246 0.9922
vn -0.0000 -0.1246 -0.9922
vn -0.7132 -0.0800 0.6964
vn -0.7132 -0.0800 -0.6964
vn -0.7132 0.0800 0.6964
vn -0.7132 0.0800 -0.6964
vt 1.000000 0.500000
vt 1.000000 1.000000
vt 0.916667 1.000000
vt 0.916667 0.500000
vt 0.833333 1.000000
vt 0.833333 0.500000
vt 0.750000 1.000000
vt 0.750000 0.500000
vt 0.666667 1.000000
vt 0.666667 0.500000
vt 0.583333 1.000000
vt 0.583333 0.500000
vt 0.500000 1.000000
vt 0.500000 0.500000
vt 0.416667 1.000000
vt 0.416667 0.500000
vt 0.333333 1.000000
vt 0.333333 0.500000
vt 0.250000 1.000000
vt 0.250000 0.500000
vt 0.166667 1.000000
vt 0.166667 0.500000
vt 0.370000 0.457846
vt 0.250000 0.490000
vt 0.130000 0.457846
vt 0.042154 0.370000
vt 0.010000 0.250000
vt 0.042154 0.130000
vt 0.130000 0.042154
vt 0.250000 0.010000
vt 0.370000 0.042154
vt 0.457846 0.130000
vt 0.490000 0.250000
vt 0.457846 0.370000
vt 0.083333 1.000000
vt 0.083333 0.500000
vt 0.000000 1.000000
vt 0.000000 0.500000
vt 0.750000 0.490000
vt 0.870000 0.457846
vt 0.957846 0.370000
vt 0.990000 0.250000
vt 0.957846 0.130000
vt 0.870000 0.042154
vt 0.750000 0.010000
vt 0.630000 0.042154
vt 0.542154 0.130000
vt 0.510000 0.250000
vt 0.542154 0.370000
vt 0.630000 0.457846
vt 0.833333 1.000000
vt 0.833333 0.500000
vt 0.666667 1.000000
vt 0.666667 0.500000
vt 0.500000 1.000000
vt 0.500000 0.500000
vt 0.333333 1.000000
vt 0.333333 0.500000
vt 0.166667 1.000000
vt 0.166667 0.500000
vt -0.000000 1.000000
vt -0.000000 0.500000
s 1
f 1/1/1 2/2/2 4/3/3 3/4/4
f 3/4/4 4/3/3 6/5/5 5/6/6
f 5/6/6 6/5/5 8/7/7 7/8/8
f 7/8/8 8/7/7 10/9/9 9/10/10
f 9/10/10 10/9/9 12/11/11 11/12/12
f 11/12/12 12/11/11 14/13/13 13/14/14
f 13/14/14 14/13/13 16/15/15 15/16/16
f 15/16/16 16/15/15 18/17/17 17/18/18
f 17/18/18 18/17/17 20/19/19 19/20/20
f 19/20/20 20/19/19 22/21/21 21/22/22
f 4/23/3 2/24/2 24/25/23 22/26/21 20/27/19 18/28/17 16/29/15 14/30/13 12/31/11 10/32/9 8/33/7 6/34/5
f 21/22/22 22/21/21 24/35/23 23/36/24
f 23/36/24 24/35/23 2/37/2 1/38/1
f 1/39/1 3/40/4 5/41/6 7/42/8 9/43/10 11/44/12 13/45/14 15/46/16 17/47/18 19/48/20 21/49/22 23/50/24
f 25/1/1 26/2/2 28/3/3 27/4/4
f 27/4/4 28/3/3 30/5/5 29/6/6
f 29/6/6 30/5/5 32/7/7 31/8/8
f 31/8/8 32/7/7 34/9/9 33/10/10
f 33/10/10 34/9/9 36/11/11 35/12/12
f 35/12/12 36/11/11 38/13/13 37/14/14
f 37/14/14 38/13/13 40/15/15 39/16/16
f 39/16/16 40/15/15 42/17/17 41/18/18
f 41/18/18 42/17/17 44/19/19 43/20/20
f 43/20/20 44/19/19 46/21/21 45/22/22
f 28/23/3 26/24/2 48/25/23 46/26/21 44/27/19 42/28/17 40/29/15 38/30/13 36/31/11 34/32/9 32/33/7 30/34/5
f 45/22/22 46/21/21 48/35/23 47/36/24
f 47/36/24 48/35/23 26/37/2 25/38/1
f 25/39/1 27/40/4 29/41/6 31/42/8 33/43/10 35/44/12 37/45/14 39/46/16 41/47/18 43/48/20 45/49/22 47/50/24
f 49/1/1 50/2/2 52/3/3 51/4/4
f 51/4/4 52/3/3 54/5/5 53/6/6
f 53/6/6 54/5/5 56/7/7 55/8/8
f 55/8/8 56/7/7 58/9/9 57/10/10
f 57/10/10 58/9/9 60/11/11 59/12/12
f 59/12/12 60/11/11 62/13/13 61/14/14
f 61/14/14 62/13/13 64/15/15 63/16/16
f 63/16/16 64/15/15 66/17/17 65/18/18
f 65/18/18 66/17/17 68/19/19 67/20/20
f 67/20/20 68/19/19 70/21/21 69/22/22
f 52/23/3 50/24/2 72/25/23 70/26/21 68/27/19 66/28/17 64/29/15 62/30/13 60/31/11 58/32/9 56/33/7 54/34/5
f 69/22/22 70/21/21 72/35/23 71/36/24
f 71/36/24 72/35/23 50/37/2 49/38/1
f 49/39/1 51/40/4 53/41/6 55/42/8 57/43/10 59/44/12 61/45/14 63/46/16 65/47/18 67/48/20 69/49/22 71/50/24
f 73/1/1 74/2/2 76/3/3 75/4/4
f 75/4/4 76/3/3 78/5/5 77/6/6
f 77/6/6 78/5/5 80/7/7 79/8/8
f 79/8/8 80/7/7 82/9/9 81/10/10
f 81/10/10 82/9/9 84/11/11 83/12/12
f 83/12/12 84/11/11 86/13/13 85/14/14
f 85/14/14 86/13/13 88/15/15 87/16/16
f 87/16/16 88/15/15 90/17/17 89/18/18
f 89/18/18 90/17/17 92/19/19 91/20/20
f 91/20/20 92/19/19 94/21/21 93/22/22
f 76/23/3 74/24/2 96/25/23 94/26/21 92/27/19 90/28/17 88/29/15 86/30/13 84/31/11 82/32/9 80/33/7 78/34/5
f 93/22/22 94/21/21 96/35/23 95/36/24
f 95/36/24 96/35/23 74/37/2 73/38/1
f 73/39/1 75/40/4 77/41/6 79/42/8 81/43/10 83/44/12 85/45/14 87/46/16 89/47/18 91/48/20 93/49/22 95/50/24
f 97/1/1 98/2/2 100/3/3 99/4/4
f 99/4/4 100/3/3 102/5/5 101/6/6
f 101/6/6 102/5/5 104/7/7 103/8/8
f 103/8/8 104/7/7 106/9/9 105/10/10
f 105/10/10 106/9/9 108/11/11 107/12/12
f 107/12/12 108/11/11 110/13/13 109/14/14
f 109/14/14 110/13/13 112/15/15 111/16/16
f 111/16/16 112/15/15 114/17/17 113/18/18
f 113/18/18 114/17/17 116/19/19 115/20/20
f 115/20/20 116/19/19 118/21/21 117/22/22
f 100/23/3 98/24/2 120/25/23 118/26/21 116/27/19 114/28/17 112/29/15 110/30/13 108/31/11 106/32/9 104/33/7 102/34/5
f 117/22/22 118/21/21 120/35/23 119/36/24
f 119/36/24 120/35/23 98/37/2 97/38/1
f 97/39/1 99/40/4 101/41/6 103/42/8 105/43/10 107/44/12 109/45/14 111/46/16 113/47/18 115/48/20 117/49/22 119/50/24
f 121/1/1 122/2/2 124/3/3 123/4/4
f 123/4/4 124/3/3 126/5/5 125/6/6
f 125/6/6 126/5/5 128/7/7 127/8/8
f 127/8/8 128/7/7 130/9/9 129/10/10
f 129/10/10 130/9/9 132/11/11 131/12/12
f 131/12/12 132/11/11 134/13/13 133/14/14
f 133/14/14 134/13/13 136/15/15 135/16/16
f 135/16/16 136/15/15 138/17/17 137/18/18
f 137/18/18 138/17/17 140/19/19 139/20/20
f 139/20/20 140/19/19 142/21/21 141/22/22
f 124/23/3 122/24/2 144/25/23 142/26/21 140/27/19 138/28/17 136/29/15 134/30/13 132/31/11 130/32/9 128/33/7 126/34/5
f 141/22/22 142/21/21 144/35/23 143/36/24
f 143/36/24 144/35/23 122/37/2 121/38/1
f 121/39/1 123/40/4 125/41/6 127/42/8 129/43/10 131/44/12 133/45/14 135/46/16 137/47/18 139/48/20 141/49/22 143/50/24
f 145/1/1 146/2/2 148/3/3 147/4/4
f 147/4/4 148/3/3 150/5/5 149/6/6
f 149/6/6 150/5/5 152/7/7 151/8/8
f 151/8/8 152/7/7 154/9/9 153/10/10
f 153/10/10 154/9/9 156/11/11 155/12/12
f 155/12/12 156/11/11 158/13/13 157/14/14
f 157/14/14 158/13/13 160/15/15 159/16/16
f 159/16/16 160/15/15 162/17/17 161/18/18
f 161/18/18 162/17/17 164/19/19 163/20/20
f 163/20/20 164/19/19 166/21/21 165/22/22
f 148/23/3 146/24/2 168/25/23 166/26/21 164/27/19 162/28/17 160/29/15 158/30/13 156/31/11 154/32/9 152/33/7 150/34/5
f 165/22/22 166/21/21 168/35/23 167/36/24
f 167/36/24 168/35/23 146/37/2 145/38/1
f 145/39/1 147/40/4 149/41/6 151/42/8 153/43/10 155/44/12 157/45/14 159/46/16 161/47/18 163/48/20 165/49/22 167/50/24
f 169/1/1 170/2/2 172/3/3 171/4/4
f 171/4/4 172/3/3 174/5/5 173/6/6
f 173/6/6 174/5/5 176/7/7 175/8/8
f 175/8/8 176/7/7 178/9/9 177/10/10
f 177/10/10 178/9/9 180/11/11 179/12/12
f 179/12/12 180/11/11 182/13/13 181/14/14
f 181/14/14 182/13/13 184/15/15 183/16/16
f 183/16/16 184/15/15 186/17/17 185/18/18
f 185/18/18 186/17/17 188/19/19 187/20/20
f 187/20/20 188/19/19 190/21/21 189/22/22
f 172/23/3 170/24/2 192/25/23 190/26/21 188/27/19 186/28/17 184/29/15 182/30/13 180/31/11 178/32/9 176/33/7 174/34/5
f 189/22/22 190/21/21 192/35/23 191/36/24
f 191/36/24 192/35/23 170/37/2 169/38/1
f 169/39/1 171/40/4 173/41/6 175/42/8 177/43/10 179/44/12 181/45/14 183/46/16 185/47/18 187/48/20 189/49/22 191/50/24
f 193/1/25 194/2/26 196/51/27 195/52/28
f 195/52/28 196/51/27 198/53/29 197/54/30
f 197/54/30 198/53/29 200/55/31 199/56/32
f 199/56/32 200/55/31 202/57/33 201/58/34
f 196/34/27 194/24/26 204/26/35 202/28/33 200/30/31 198/32/29
f 201/58/34 202/57/33 204/59/35 203/60/36
f 203/60/36 204/59/35 194/61/26 193/62/25
f 193/39/25 195/41/28 197/43/30 199/45/32 201/47/34 203/49/36
f 205/1/25 206/2/26 208/51/27 207/52/28
f 207/52/28 208/51/27 210/53/29 209/54/30
f 209/54/30 210/53/29 212/55/31 211/56/32
f 211/56/32 212/55/31 214/57/33 213/58/34
f 208/34/27 206/24/26 216/26/35 214/28/33 212/30/31 210/32/29
f 213/58/34 214/57/33 216/59/35 215/60/36
f 215/60/36 216/59/35 206/61/26 205/62/25
f 205/39/25 207/41/28 209/43/30 211/45/32 213/47/34 215/49/36
f 217/1/25 218/2/26 220/51/27 219/52/28
f 219/52/28 220/51/27 222/53/29 221/54/30
f 221/54/30 222/53/29 224/55/31 223/56/32
f 223/56/32 224/55/31 226/57/33 225/58/34
f 220/34/27 218/24/26 228/26/35 226/28/33 224/30/31 222/32/29
f 225/58/34 226/57/33 228/59/35 227/60/36
f 227/60/36 228/59/35 218/61/26 217/62/25
f 217/39/25 219/41/28 221/43/30 223/45/32 225/47/34 227/49/36
f 229/1/25 230/2/26 232/51/27 231/52/28
f 231/52/28 232/51/27 234/53/29 233/54/30
f 233/54/30 234/53/29 236/55/31 235/56/32
f 235/56/32 236/55/31 238/57/33 237/58/34
f 232/34/27 230/24/26 240/26/35 238/28/33 236/30/31 234/32/29
f 237/58/34 238/57/33 240/59/35 239/60/36
f 239/60/36 240/59/35 230/61/26 229/62/25
f 229/39/25 231/41/28 233/43/30 235/45/32 237/47/34 239/49/36
